/* XPM */
static const char * download_xpm[] = {
"16 16 147 2",
"  	c None",
". 	c #454F9A",
"+ 	c #4D569E",
"@ 	c #44509B",
"# 	c #364394",
"$ 	c #363F90",
"% 	c #8791C2",
"& 	c #909DC9",
"* 	c #4E5FA5",
"= 	c #6A80BC",
"- 	c #47559E",
"; 	c #768DC3",
"> 	c #323F91",
", 	c #283189",
"' 	c #7C84B8",
") 	c #B8C9E5",
"! 	c #AFC6E4",
"~ 	c #6281BD",
"{ 	c #7695C9",
"] 	c #4D66AA",
"^ 	c #465DA5",
"/ 	c #99AED7",
"( 	c #2A358C",
"_ 	c #6169AB",
": 	c #98A6CE",
"< 	c #CDE1F4",
"[ 	c #9ABBE1",
"} 	c #8CB2DD",
"| 	c #456DB1",
"1 	c #3159A4",
"2 	c #1C4195",
"3 	c #5E7BB8",
"4 	c #40509D",
"5 	c #12197E",
"6 	c #6371AE",
"7 	c #ABC0E0",
"8 	c #BED9F3",
"9 	c #B3D5F2",
"0 	c #74A0D1",
"a 	c #235FAA",
"b 	c #245BA7",
"c 	c #20509F",
"d 	c #5175B6",
"e 	c #A4BEE0",
"f 	c #2A338F",
"g 	c #1F2786",
"h 	c #1D378F",
"i 	c #8DAAD4",
"j 	c #8EB2DA",
"k 	c #98BCE0",
"l 	c #77A4D0",
"m 	c #4C88C2",
"n 	c #286BB2",
"o 	c #245DA9",
"p 	c #5D85C0",
"q 	c #B8CFEA",
"r 	c #303B94",
"s 	c #1F2687",
"t 	c #1C3A90",
"u 	c #4B74B4",
"v 	c #8EB5DD",
"w 	c #619DCE",
"x 	c #3989C6",
"y 	c #3385C4",
"z 	c #2B79BC",
"A 	c #2669B2",
"B 	c #648CC2",
"C 	c #C0CEE6",
"D 	c #9C9EC9",
"E 	c #151A82",
"F 	c #233E94",
"G 	c #3566AD",
"H 	c #3E82C0",
"I 	c #5FA5D7",
"J 	c #7DBBE4",
"K 	c #3B97D0",
"L 	c #2D85C5",
"M 	c #2B74B9",
"N 	c #89A5CE",
"O 	c #3562AB",
"P 	c #1E53A2",
"Q 	c #194E9E",
"R 	c #2455A0",
"S 	c #182B8B",
"T 	c #2758A5",
"U 	c #4A8CC5",
"V 	c #9CCDED",
"W 	c #B8E1F8",
"X 	c #B8E0FA",
"Y 	c #7EBDE3",
"Z 	c #4486C1",
"` 	c #85A1CB",
" .	c #1B4A93",
"..	c #A5C0CF",
"+.	c #A8C4D3",
"@.	c #154287",
"#.	c #101582",
"$.	c #264EA0",
"%.	c #2770B6",
"&.	c #64AEDA",
"*.	c #C4E8FD",
"=.	c #CCEAFC",
"-.	c #BCDEF5",
";.	c #77A4D2",
">.	c #849ACD",
",.	c #174081",
"'.	c #7B97B1",
").	c #7F9BB3",
"!.	c #113874",
"~.	c #1C2088",
"{.	c #375CAB",
"].	c #579DD1",
"^.	c #D5F3FE",
"/.	c #BBE5F8",
"(.	c #ABCDE9",
"_.	c #466DA0",
":.	c #1B3E75",
"<.	c #0D3168",
"[.	c #5E7A97",
"}.	c #607D9A",
"|.	c #072656",
"1.	c #10305F",
"2.	c #102F5C",
"3.	c #071384",
"4.	c #213396",
"5.	c #0E2891",
"6.	c #676FB6",
"7.	c #2C4579",
"8.	c #1D3B68",
"9.	c #49678D",
"0.	c #55759F",
"a.	c #44638D",
"b.	c #163157",
"c.	c #0A254C",
"d.	c #325283",
"e.	c #6389BF",
"f.	c #678CC2",
"g.	c #3A5A8A",
"h.	c #041836",
"i.	c #031126",
"j.	c #7C9FD2",
"k.	c #85A8DB",
"l.	c #051024",
"m.	c #172234",
"n.	c #182434",
"o.	c #041022",
"p.	c #040F21",
"        . + @ #                 ",
"    $ % & * = - ; >             ",
"  , ' ) ! ~ { ] ^ / (           ",
"  _ : < [ } | 1 2 3 4           ",
"5 6 7 8 9 0 a b c d e f         ",
"g h i j k l m n o p q r         ",
"s t u v w x y z A B C D         ",
"E F G H I J K L M N O P Q R     ",
"  S T U V W X Y Z `  ...+.@.    ",
"  #.$.%.&.*.=.-.;.>.,.'.).!.    ",
"    ~.{.].^./.(._.:.<.[.}.|.1.2.",
"        3.4.5.6.7.8.9.0.0.a.b.  ",
"                  c.d.e.f.g.h.  ",
"                    i.j.k.l.    ",
"                      m.n.      ",
"                      o.p.      "};
